<svg width="24" height="25" viewBox="0 0 24 25" fill="none" xmlns="http://www.w3.org/2000/svg">
<path d="M18 8.54445C18 6.97083 17.3679 5.46166 16.2426 4.34895C15.1174 3.23623 13.5913 2.61111 12 2.61111C10.4087 2.61111 8.88258 3.23623 7.75736 4.34895C6.63214 5.46166 6 6.97083 6 8.54445C6 15.4667 3 17.4444 3 17.4444H21C21 17.4444 18 15.4667 18 8.54445Z" stroke="black" stroke-width="2" stroke-linecap="round" stroke-linejoin="round"/>
<path d="M13.73 21.4C13.5542 21.6997 13.3018 21.9485 12.9982 22.1214C12.6946 22.2944 12.3504 22.3854 12 22.3854C11.6496 22.3854 11.3054 22.2944 11.0018 22.1214C10.6981 21.9485 10.4458 21.6997 10.27 21.4" stroke="black" stroke-width="2" stroke-linecap="round" stroke-linejoin="round"/>
</svg>
