<svg width="96" height="66" viewBox="0 0 96 66" fill="none" xmlns="http://www.w3.org/2000/svg">
<rect x="1.5" y="1.5" width="93" height="63" rx="31.5" fill="#011E64" stroke="white" stroke-width="3"/>
<path d="M61 45V42.3684C61 40.9726 60.3415 39.6339 59.1694 38.6468C57.9973 37.6598 56.4076 37.1053 54.75 37.1053H42.25C40.5924 37.1053 39.0027 37.6598 37.8306 38.6468C36.6585 39.6339 36 40.9726 36 42.3684V45" stroke="white" stroke-width="2" stroke-linecap="round" stroke-linejoin="round"/>
<path d="M48.9375 30.5263C52.3893 30.5263 55.1875 28.1699 55.1875 25.2632C55.1875 22.3564 52.3893 20 48.9375 20C45.4857 20 42.6875 22.3564 42.6875 25.2632C42.6875 28.1699 45.4857 30.5263 48.9375 30.5263Z" stroke="white" stroke-width="2" stroke-linecap="round" stroke-linejoin="round"/>
</svg>
