<svg width="96" height="66" viewBox="0 0 96 66" fill="none" xmlns="http://www.w3.org/2000/svg">
<rect x="1.5" y="1.5" width="93" height="63" rx="31.5" fill="#011E64" stroke="white" stroke-width="3"/>
<path d="M59 31H45C43.8954 31 43 31.8954 43 33V40C43 41.1046 43.8954 42 45 42H59C60.1046 42 61 41.1046 61 40V33C61 31.8954 60.1046 31 59 31Z" stroke="white" stroke-width="2" stroke-linecap="round" stroke-linejoin="round"/>
<path d="M47 31V27C47 25.6739 47.5268 24.4021 48.4645 23.4645C49.4021 22.5268 50.6739 22 52 22C53.3261 22 54.5979 22.5268 55.5355 23.4645C56.4732 24.4021 57 25.6739 57 27V31" stroke="white" stroke-width="2" stroke-linecap="round" stroke-linejoin="round"/>
</svg>
