<svg width="96" height="66" viewBox="0 0 96 66" fill="none" xmlns="http://www.w3.org/2000/svg">
<rect x="1.5" y="1.5" width="93" height="63" rx="31.5" fill="#011E64" stroke="white" stroke-width="3"/>
<path d="M57 41V38.8947C57 37.778 56.5259 36.7071 55.682 35.9174C54.8381 35.1278 53.6935 34.6842 52.5 34.6842H43.5C42.3065 34.6842 41.1619 35.1278 40.318 35.9174C39.4741 36.7071 39 37.778 39 38.8947V41" stroke="white" stroke-width="2" stroke-linecap="round" stroke-linejoin="round"/>
<path d="M48.3149 29.4211C50.8002 29.4211 52.8149 27.5359 52.8149 25.2105C52.8149 22.8851 50.8002 21 48.3149 21C45.8297 21 43.8149 22.8851 43.8149 25.2105C43.8149 27.5359 45.8297 29.4211 48.3149 29.4211Z" stroke="white" stroke-width="2" stroke-linecap="round" stroke-linejoin="round"/>
</svg>
