<svg width="104" height="110" viewBox="0 0 104 110" fill="none" xmlns="http://www.w3.org/2000/svg">
<path d="M36.5706 16.0549L47.8892 0V103.019H36.5706V16.0549Z" fill="#FFD600"/>
<path d="M55.4348 42.0311L66.7535 30.7719V103.019H55.4348V42.0311Z" fill="#FFD600"/>
<path d="M73.6891 27.9556C82.6006 31.1568 90.2229 36.5894 95.5921 43.5666C100.961 50.5438 103.836 58.7521 103.854 67.1535C103.871 75.5549 101.03 83.7722 95.6894 90.7661C90.349 97.76 82.7491 103.217 73.8509 106.446L70.3777 99.1737C77.6259 96.5434 83.8165 92.0988 88.1667 86.4017C92.5168 80.7047 94.8312 74.0112 94.8171 67.1676C94.803 60.3241 92.461 53.6379 88.0874 47.9545C83.7138 42.2712 77.5049 37.8459 70.246 35.2383L73.6891 27.9556Z" fill="white"/>
<path d="M28.0632 106.608C19.7837 103.382 12.709 97.9283 7.73378 90.9362C2.7586 83.9441 0.10638 75.7278 0.112515 67.3264C0.118649 58.9249 2.78286 50.7156 7.76825 43.7366C12.7536 36.7576 19.8363 31.3223 28.1205 28.1181L31.3315 35.3996C24.5834 38.0096 18.8141 42.437 14.7532 48.1219C10.6923 53.8068 8.52208 60.4938 8.51708 67.3374C8.51209 74.181 10.6725 80.8737 14.7251 86.5692C18.7777 92.2647 24.5406 96.7073 31.2848 99.3351L28.0632 106.608Z" fill="white"/>
</svg>
