<svg width="405" height="171" viewBox="0 0 405 171" fill="none" xmlns="http://www.w3.org/2000/svg">
<rect x="7" y="122" width="228" height="5" fill="white"/>
<path d="M12.852 146.01V147H8.712V146.01L9.972 145.524L9 142.878H3.69L2.7 145.542L3.978 146.01V147H0.144V146.01L1.386 145.452L5.49 134.616H7.506L11.61 145.434L12.852 146.01ZM8.532 141.6L6.354 135.696L4.158 141.6H8.532ZM18.8402 141.888C19.6682 142.044 20.2862 142.218 20.6942 142.41C21.1022 142.602 21.3782 142.854 21.5222 143.166C21.6662 143.466 21.7382 143.892 21.7382 144.444C21.7382 145.128 21.6122 145.674 21.3602 146.082C21.1202 146.478 20.6882 146.772 20.0642 146.964C19.4522 147.156 18.5822 147.252 17.4542 147.252C16.8782 147.252 16.3202 147.222 15.7802 147.162C15.2402 147.114 14.5862 147.024 13.8182 146.892V144.3H14.8982L15.4202 145.83C16.0562 145.938 16.7522 145.992 17.5082 145.992C18.2522 145.992 18.8102 145.956 19.1822 145.884C19.5542 145.8 19.8062 145.668 19.9382 145.488C20.0822 145.296 20.1542 145.02 20.1542 144.66C20.1542 144.336 20.0882 144.096 19.9562 143.94C19.8242 143.772 19.6262 143.652 19.3622 143.58C19.1102 143.508 18.6662 143.424 18.0302 143.328L16.8062 143.112C15.9542 142.956 15.3122 142.782 14.8802 142.59C14.4482 142.398 14.1422 142.14 13.9622 141.816C13.7942 141.48 13.7102 141.012 13.7102 140.412C13.7102 139.752 13.8242 139.23 14.0522 138.846C14.2922 138.462 14.7002 138.18 15.2762 138C15.8522 137.808 16.6622 137.712 17.7062 137.712C18.7502 137.712 19.9862 137.832 21.4142 138.072V140.574H20.3702L19.8842 139.17C19.0922 139.038 18.3422 138.972 17.6342 138.972C17.0102 138.972 16.5302 139.014 16.1942 139.098C15.8582 139.182 15.6242 139.314 15.4922 139.494C15.3602 139.674 15.2942 139.932 15.2942 140.268C15.2942 140.604 15.3662 140.856 15.5102 141.024C15.6542 141.18 15.8882 141.306 16.2122 141.402C16.5362 141.486 17.1002 141.594 17.9042 141.726C18.2042 141.762 18.5162 141.816 18.8402 141.888ZM28.3148 141.888C29.1428 142.044 29.7608 142.218 30.1688 142.41C30.5768 142.602 30.8528 142.854 30.9968 143.166C31.1408 143.466 31.2128 143.892 31.2128 144.444C31.2128 145.128 31.0868 145.674 30.8348 146.082C30.5948 146.478 30.1628 146.772 29.5388 146.964C28.9268 147.156 28.0568 147.252 26.9288 147.252C26.3528 147.252 25.7948 147.222 25.2548 147.162C24.7148 147.114 24.0608 147.024 23.2928 146.892V144.3H24.3728L24.8948 145.83C25.5308 145.938 26.2268 145.992 26.9828 145.992C27.7268 145.992 28.2848 145.956 28.6568 145.884C29.0288 145.8 29.2808 145.668 29.4128 145.488C29.5568 145.296 29.6288 145.02 29.6288 144.66C29.6288 144.336 29.5628 144.096 29.4308 143.94C29.2988 143.772 29.1008 143.652 28.8368 143.58C28.5848 143.508 28.1408 143.424 27.5048 143.328L26.2808 143.112C25.4288 142.956 24.7868 142.782 24.3548 142.59C23.9228 142.398 23.6168 142.14 23.4368 141.816C23.2688 141.48 23.1848 141.012 23.1848 140.412C23.1848 139.752 23.2988 139.23 23.5268 138.846C23.7668 138.462 24.1748 138.18 24.7508 138C25.3268 137.808 26.1368 137.712 27.1808 137.712C28.2248 137.712 29.4608 137.832 30.8888 138.072V140.574H29.8448L29.3588 139.17C28.5668 139.038 27.8168 138.972 27.1088 138.972C26.4848 138.972 26.0048 139.014 25.6688 139.098C25.3328 139.182 25.0988 139.314 24.9668 139.494C24.8348 139.674 24.7688 139.932 24.7688 140.268C24.7688 140.604 24.8408 140.856 24.9848 141.024C25.1288 141.18 25.3628 141.306 25.6868 141.402C26.0108 141.486 26.5748 141.594 27.3788 141.726C27.6788 141.762 27.9908 141.816 28.3148 141.888ZM37.1955 137.712C38.4195 137.712 39.4095 138.096 40.1655 138.864C40.9335 139.62 41.3175 140.748 41.3175 142.248V142.968H34.2615C34.3215 143.772 34.4655 144.39 34.6935 144.822C34.9335 145.242 35.2755 145.536 35.7195 145.704C36.1755 145.872 36.7995 145.956 37.5915 145.956C38.7315 145.956 39.8595 145.818 40.9755 145.542V146.838C40.5075 146.958 39.9615 147.054 39.3375 147.126C38.7135 147.21 38.1195 147.252 37.5555 147.252C35.9595 147.252 34.7475 146.892 33.9195 146.172C33.0915 145.452 32.6775 144.222 32.6775 142.482C32.6775 140.862 33.0855 139.662 33.9015 138.882C34.7175 138.102 35.8155 137.712 37.1955 137.712ZM37.1055 139.008C36.1695 139.008 35.4855 139.218 35.0535 139.638C34.6215 140.058 34.3635 140.742 34.2795 141.69H39.7155C39.6435 140.802 39.3975 140.136 38.9775 139.692C38.5575 139.236 37.9335 139.008 37.1055 139.008ZM46.9651 147.144C45.8131 147.144 44.9851 146.91 44.4811 146.442C43.9891 145.974 43.7431 145.182 43.7431 144.066V139.224H42.3391V138.216L43.7431 137.964L44.2831 135.354H45.2551V137.964L48.3331 137.982V139.242L45.2551 139.224V144.066C45.2551 144.558 45.3151 144.93 45.4351 145.182C45.5551 145.434 45.7531 145.608 46.0291 145.704C46.3051 145.8 46.7071 145.848 47.2351 145.848C47.6431 145.848 48.0691 145.806 48.5131 145.722V146.982C48.0811 147.09 47.5651 147.144 46.9651 147.144ZM68.8433 136.308V145.47L70.1753 146.01V147H66.0533V146.01L67.2953 145.47V135.948L63.2093 145.47H62.0033L57.8993 135.948V145.47L59.1413 146.01V147H55.2713V146.01L56.6033 145.47V136.308L55.2713 135.786V134.76H59.0693L62.7593 143.454L66.4493 134.76H70.1753V135.786L68.8433 136.308ZM81.5238 146.01V147H79.3818L78.9138 145.704C78.4218 146.208 77.8878 146.58 77.3118 146.82C76.7478 147.06 76.1118 147.18 75.4038 147.18C74.2518 147.18 73.3998 146.958 72.8478 146.514C72.2958 146.07 72.0198 145.35 72.0198 144.354C72.0198 143.298 72.3498 142.536 73.0098 142.068C73.6698 141.588 74.7318 141.348 76.1958 141.348C76.7718 141.348 77.2758 141.402 77.7078 141.51C78.1518 141.606 78.5118 141.726 78.7878 141.87V141.168C78.7878 140.616 78.7158 140.19 78.5718 139.89C78.4398 139.578 78.1938 139.356 77.8338 139.224C77.4858 139.08 76.9758 139.008 76.3038 139.008C75.0918 139.008 73.8318 139.152 72.5238 139.44V138.144C73.8558 137.856 75.1278 137.712 76.3398 137.712C77.4678 137.712 78.3138 137.826 78.8778 138.054C79.4538 138.282 79.8318 138.612 80.0118 139.044C80.2038 139.476 80.2998 140.076 80.2998 140.844V145.47L81.5238 146.01ZM73.6038 144.246C73.6038 144.834 73.7478 145.254 74.0358 145.506C74.3358 145.758 74.8758 145.884 75.6558 145.884C76.2318 145.884 76.7838 145.782 77.3118 145.578C77.8518 145.362 78.3438 145.068 78.7878 144.696V142.896C78.1158 142.704 77.3058 142.608 76.3578 142.608C75.3138 142.608 74.5938 142.74 74.1978 143.004C73.8018 143.268 73.6038 143.682 73.6038 144.246ZM93.4642 146.01V147H90.7282V141.042C90.7282 140.334 90.5542 139.824 90.2062 139.512C89.8702 139.188 89.3722 139.026 88.7122 139.026C88.2922 139.026 87.8782 139.08 87.4702 139.188C87.0742 139.296 86.4922 139.488 85.7242 139.764V145.47L87.1282 146.01V147H82.9882V146.01L84.2122 145.47V139.494L82.9882 138.99V137.964H84.9862L85.4542 138.702C86.1262 138.354 86.7622 138.102 87.3622 137.946C87.9622 137.79 88.5742 137.712 89.1982 137.712C89.9542 137.712 90.5542 137.832 90.9982 138.072C91.4422 138.3 91.7602 138.672 91.9522 139.188C92.1442 139.692 92.2402 140.376 92.2402 141.24V145.47L93.4642 146.01ZM104.446 146.01V147H102.304L101.836 145.704C101.344 146.208 100.81 146.58 100.234 146.82C99.6697 147.06 99.0337 147.18 98.3257 147.18C97.1737 147.18 96.3217 146.958 95.7697 146.514C95.2177 146.07 94.9417 145.35 94.9417 144.354C94.9417 143.298 95.2717 142.536 95.9317 142.068C96.5917 141.588 97.6537 141.348 99.1177 141.348C99.6937 141.348 100.198 141.402 100.63 141.51C101.074 141.606 101.434 141.726 101.71 141.87V141.168C101.71 140.616 101.638 140.19 101.494 139.89C101.362 139.578 101.116 139.356 100.756 139.224C100.408 139.08 99.8977 139.008 99.2257 139.008C98.0137 139.008 96.7537 139.152 95.4457 139.44V138.144C96.7777 137.856 98.0497 137.712 99.2617 137.712C100.39 137.712 101.236 137.826 101.8 138.054C102.376 138.282 102.754 138.612 102.934 139.044C103.126 139.476 103.222 140.076 103.222 140.844V145.47L104.446 146.01ZM96.5257 144.246C96.5257 144.834 96.6697 145.254 96.9577 145.506C97.2577 145.758 97.7977 145.884 98.5777 145.884C99.1537 145.884 99.7057 145.782 100.234 145.578C100.774 145.362 101.266 145.068 101.71 144.696V142.896C101.038 142.704 100.228 142.608 99.2797 142.608C98.2357 142.608 97.5157 142.74 97.1197 143.004C96.7237 143.268 96.5257 143.682 96.5257 144.246ZM114.82 138.99L113.47 139.422C113.71 139.878 113.83 140.412 113.83 141.024C113.83 142.092 113.488 142.89 112.804 143.418C112.12 143.934 111.154 144.192 109.906 144.192C108.91 144.192 108.106 144.036 107.494 143.724C107.206 143.964 107.062 144.27 107.062 144.642C107.062 144.978 107.188 145.224 107.44 145.38C107.704 145.524 108.142 145.596 108.754 145.596H112.066C113.038 145.596 113.74 145.794 114.172 146.19C114.604 146.574 114.82 147.18 114.82 148.008C114.82 149.112 114.442 149.922 113.686 150.438C112.93 150.954 111.742 151.212 110.122 151.212C108.742 151.212 107.62 150.99 106.756 150.546C105.904 150.114 105.478 149.406 105.478 148.422C105.478 147.966 105.586 147.576 105.802 147.252C106.03 146.94 106.372 146.712 106.828 146.568C106.108 146.268 105.748 145.71 105.748 144.894C105.748 144.126 106.09 143.574 106.774 143.238C106.21 142.698 105.928 141.948 105.928 140.988C105.928 139.908 106.27 139.092 106.954 138.54C107.65 137.988 108.616 137.712 109.852 137.712C110.512 137.712 111.112 137.796 111.652 137.964H114.82V138.99ZM109.87 143.022C110.53 143.022 111.034 142.95 111.382 142.806C111.742 142.662 111.988 142.446 112.12 142.158C112.252 141.858 112.318 141.456 112.318 140.952C112.318 140.448 112.252 140.052 112.12 139.764C111.988 139.464 111.742 139.242 111.382 139.098C111.034 138.954 110.53 138.882 109.87 138.882C109.21 138.882 108.7 138.96 108.34 139.116C107.992 139.26 107.752 139.482 107.62 139.782C107.488 140.07 107.422 140.466 107.422 140.97C107.422 141.474 107.488 141.87 107.62 142.158C107.752 142.446 107.992 142.662 108.34 142.806C108.688 142.95 109.198 143.022 109.87 143.022ZM108.124 147C107.716 147 107.404 147.102 107.188 147.306C106.984 147.522 106.882 147.834 106.882 148.242C106.882 148.854 107.134 149.298 107.638 149.574C108.154 149.862 109.012 150.006 110.212 150.006C111.052 150.006 111.694 149.946 112.138 149.826C112.582 149.718 112.888 149.538 113.056 149.286C113.236 149.046 113.326 148.71 113.326 148.278C113.326 147.798 113.224 147.462 113.02 147.27C112.828 147.09 112.468 147 111.94 147H108.124ZM120.533 137.712C121.757 137.712 122.747 138.096 123.503 138.864C124.271 139.62 124.655 140.748 124.655 142.248V142.968H117.599C117.659 143.772 117.803 144.39 118.031 144.822C118.271 145.242 118.613 145.536 119.057 145.704C119.513 145.872 120.137 145.956 120.929 145.956C122.069 145.956 123.197 145.818 124.313 145.542V146.838C123.845 146.958 123.299 147.054 122.675 147.126C122.051 147.21 121.457 147.252 120.893 147.252C119.297 147.252 118.085 146.892 117.257 146.172C116.429 145.452 116.015 144.222 116.015 142.482C116.015 140.862 116.423 139.662 117.239 138.882C118.055 138.102 119.153 137.712 120.533 137.712ZM120.443 139.008C119.507 139.008 118.823 139.218 118.391 139.638C117.959 140.058 117.701 140.742 117.617 141.69H123.053C122.981 140.802 122.735 140.136 122.315 139.692C121.895 139.236 121.271 139.008 120.443 139.008ZM142.525 146.01V147H139.789V141.042C139.789 140.334 139.633 139.824 139.321 139.512C139.009 139.188 138.547 139.026 137.935 139.026C137.515 139.026 137.125 139.08 136.765 139.188C136.417 139.284 135.841 139.476 135.037 139.764V145.47L136.261 146.01V147H133.525V141.042C133.525 140.334 133.369 139.824 133.057 139.512C132.745 139.188 132.283 139.026 131.671 139.026C131.263 139.026 130.879 139.08 130.519 139.188C130.171 139.284 129.589 139.476 128.773 139.764V145.47L129.997 146.01V147H126.037V146.01L127.261 145.47V139.494L126.037 138.99V137.964H128.035L128.503 138.702C129.211 138.342 129.847 138.09 130.411 137.946C130.975 137.79 131.557 137.712 132.157 137.712C132.757 137.712 133.255 137.796 133.651 137.964C134.059 138.132 134.395 138.396 134.659 138.756C135.379 138.384 136.027 138.12 136.603 137.964C137.191 137.796 137.797 137.712 138.421 137.712C139.141 137.712 139.711 137.832 140.131 138.072C140.551 138.3 140.851 138.672 141.031 139.188C141.211 139.692 141.301 140.376 141.301 141.24V145.47L142.525 146.01ZM148.412 137.712C149.636 137.712 150.626 138.096 151.382 138.864C152.15 139.62 152.534 140.748 152.534 142.248V142.968H145.478C145.538 143.772 145.682 144.39 145.91 144.822C146.15 145.242 146.492 145.536 146.936 145.704C147.392 145.872 148.016 145.956 148.808 145.956C149.948 145.956 151.076 145.818 152.192 145.542V146.838C151.724 146.958 151.178 147.054 150.554 147.126C149.93 147.21 149.336 147.252 148.772 147.252C147.176 147.252 145.964 146.892 145.136 146.172C144.308 145.452 143.894 144.222 143.894 142.482C143.894 140.862 144.302 139.662 145.118 138.882C145.934 138.102 147.032 137.712 148.412 137.712ZM148.322 139.008C147.386 139.008 146.702 139.218 146.27 139.638C145.838 140.058 145.58 140.742 145.496 141.69H150.932C150.86 140.802 150.614 140.136 150.194 139.692C149.774 139.236 149.15 139.008 148.322 139.008ZM164.392 146.01V147H161.656V141.042C161.656 140.334 161.482 139.824 161.134 139.512C160.798 139.188 160.3 139.026 159.64 139.026C159.22 139.026 158.806 139.08 158.398 139.188C158.002 139.296 157.42 139.488 156.652 139.764V145.47L158.056 146.01V147H153.916V146.01L155.14 145.47V139.494L153.916 138.99V137.964H155.914L156.382 138.702C157.054 138.354 157.69 138.102 158.29 137.946C158.89 137.79 159.502 137.712 160.126 137.712C160.882 137.712 161.482 137.832 161.926 138.072C162.37 138.3 162.688 138.672 162.88 139.188C163.072 139.692 163.168 140.376 163.168 141.24V145.47L164.392 146.01ZM170.117 147.144C168.965 147.144 168.137 146.91 167.633 146.442C167.141 145.974 166.895 145.182 166.895 144.066V139.224H165.491V138.216L166.895 137.964L167.435 135.354H168.407V137.964L171.485 137.982V139.242L168.407 139.224V144.066C168.407 144.558 168.467 144.93 168.587 145.182C168.707 145.434 168.905 145.608 169.181 145.704C169.457 145.8 169.859 145.848 170.387 145.848C170.795 145.848 171.221 145.806 171.665 145.722V146.982C171.233 147.09 170.717 147.144 170.117 147.144ZM183.284 141.888C184.112 142.044 184.73 142.218 185.138 142.41C185.546 142.602 185.822 142.854 185.966 143.166C186.11 143.466 186.182 143.892 186.182 144.444C186.182 145.128 186.056 145.674 185.804 146.082C185.564 146.478 185.132 146.772 184.508 146.964C183.896 147.156 183.026 147.252 181.898 147.252C181.322 147.252 180.764 147.222 180.224 147.162C179.684 147.114 179.03 147.024 178.262 146.892V144.3H179.342L179.864 145.83C180.5 145.938 181.196 145.992 181.952 145.992C182.696 145.992 183.254 145.956 183.626 145.884C183.998 145.8 184.25 145.668 184.382 145.488C184.526 145.296 184.598 145.02 184.598 144.66C184.598 144.336 184.532 144.096 184.4 143.94C184.268 143.772 184.07 143.652 183.806 143.58C183.554 143.508 183.11 143.424 182.474 143.328L181.25 143.112C180.398 142.956 179.756 142.782 179.324 142.59C178.892 142.398 178.586 142.14 178.406 141.816C178.238 141.48 178.154 141.012 178.154 140.412C178.154 139.752 178.268 139.23 178.496 138.846C178.736 138.462 179.144 138.18 179.72 138C180.296 137.808 181.106 137.712 182.15 137.712C183.194 137.712 184.43 137.832 185.858 138.072V140.574H184.814L184.328 139.17C183.536 139.038 182.786 138.972 182.078 138.972C181.454 138.972 180.974 139.014 180.638 139.098C180.302 139.182 180.068 139.314 179.936 139.494C179.804 139.674 179.738 139.932 179.738 140.268C179.738 140.604 179.81 140.856 179.954 141.024C180.098 141.18 180.332 141.306 180.656 141.402C180.98 141.486 181.544 141.594 182.348 141.726C182.648 141.762 182.96 141.816 183.284 141.888ZM198.194 137.964V138.972L196.718 139.476L192.74 148.35C192.44 149.034 192.104 149.562 191.732 149.934C191.372 150.318 190.91 150.594 190.346 150.762C189.794 150.942 189.074 151.032 188.186 151.032H187.826V149.7C188.282 149.736 188.72 149.754 189.14 149.754C189.596 149.754 189.956 149.694 190.22 149.574C190.496 149.454 190.766 149.202 191.03 148.818C191.306 148.446 191.636 147.846 192.02 147.018L188.564 139.476L187.088 138.972V137.964H191.678V138.972L190.22 139.458L192.812 145.272L195.368 139.458L193.91 138.972V137.964H198.194ZM204.219 141.888C205.047 142.044 205.665 142.218 206.073 142.41C206.481 142.602 206.757 142.854 206.901 143.166C207.045 143.466 207.117 143.892 207.117 144.444C207.117 145.128 206.991 145.674 206.739 146.082C206.499 146.478 206.067 146.772 205.443 146.964C204.831 147.156 203.961 147.252 202.833 147.252C202.257 147.252 201.699 147.222 201.159 147.162C200.619 147.114 199.965 147.024 199.197 146.892V144.3H200.277L200.799 145.83C201.435 145.938 202.131 145.992 202.887 145.992C203.631 145.992 204.189 145.956 204.561 145.884C204.933 145.8 205.185 145.668 205.317 145.488C205.461 145.296 205.533 145.02 205.533 144.66C205.533 144.336 205.467 144.096 205.335 143.94C205.203 143.772 205.005 143.652 204.741 143.58C204.489 143.508 204.045 143.424 203.409 143.328L202.185 143.112C201.333 142.956 200.691 142.782 200.259 142.59C199.827 142.398 199.521 142.14 199.341 141.816C199.173 141.48 199.089 141.012 199.089 140.412C199.089 139.752 199.203 139.23 199.431 138.846C199.671 138.462 200.079 138.18 200.655 138C201.231 137.808 202.041 137.712 203.085 137.712C204.129 137.712 205.365 137.832 206.793 138.072V140.574H205.749L205.263 139.17C204.471 139.038 203.721 138.972 203.013 138.972C202.389 138.972 201.909 139.014 201.573 139.098C201.237 139.182 201.003 139.314 200.871 139.494C200.739 139.674 200.673 139.932 200.673 140.268C200.673 140.604 200.745 140.856 200.889 141.024C201.033 141.18 201.267 141.306 201.591 141.402C201.915 141.486 202.479 141.594 203.283 141.726C203.583 141.762 203.895 141.816 204.219 141.888ZM212.938 147.144C211.786 147.144 210.958 146.91 210.454 146.442C209.962 145.974 209.716 145.182 209.716 144.066V139.224H208.312V138.216L209.716 137.964L210.256 135.354H211.228V137.964L214.306 137.982V139.242L211.228 139.224V144.066C211.228 144.558 211.288 144.93 211.408 145.182C211.528 145.434 211.726 145.608 212.002 145.704C212.278 145.8 212.68 145.848 213.208 145.848C213.616 145.848 214.042 145.806 214.486 145.722V146.982C214.054 147.09 213.538 147.144 212.938 147.144ZM220.289 137.712C221.513 137.712 222.503 138.096 223.259 138.864C224.027 139.62 224.411 140.748 224.411 142.248V142.968H217.355C217.415 143.772 217.559 144.39 217.787 144.822C218.027 145.242 218.369 145.536 218.813 145.704C219.269 145.872 219.893 145.956 220.685 145.956C221.825 145.956 222.953 145.818 224.069 145.542V146.838C223.601 146.958 223.055 147.054 222.431 147.126C221.807 147.21 221.213 147.252 220.649 147.252C219.053 147.252 217.841 146.892 217.013 146.172C216.185 145.452 215.771 144.222 215.771 142.482C215.771 140.862 216.179 139.662 216.995 138.882C217.811 138.102 218.909 137.712 220.289 137.712ZM220.199 139.008C219.263 139.008 218.579 139.218 218.147 139.638C217.715 140.058 217.457 140.742 217.373 141.69H222.809C222.737 140.802 222.491 140.136 222.071 139.692C221.651 139.236 221.027 139.008 220.199 139.008ZM242.281 146.01V147H239.545V141.042C239.545 140.334 239.389 139.824 239.077 139.512C238.765 139.188 238.303 139.026 237.691 139.026C237.271 139.026 236.881 139.08 236.521 139.188C236.173 139.284 235.597 139.476 234.793 139.764V145.47L236.017 146.01V147H233.281V141.042C233.281 140.334 233.125 139.824 232.813 139.512C232.501 139.188 232.039 139.026 231.427 139.026C231.019 139.026 230.635 139.08 230.275 139.188C229.927 139.284 229.345 139.476 228.529 139.764V145.47L229.753 146.01V147H225.793V146.01L227.017 145.47V139.494L225.793 138.99V137.964H227.791L228.259 138.702C228.967 138.342 229.603 138.09 230.167 137.946C230.731 137.79 231.313 137.712 231.913 137.712C232.513 137.712 233.011 137.796 233.407 137.964C233.815 138.132 234.151 138.396 234.415 138.756C235.135 138.384 235.783 138.12 236.359 137.964C236.947 137.796 237.553 137.712 238.177 137.712C238.897 137.712 239.467 137.832 239.887 138.072C240.307 138.3 240.607 138.672 240.787 139.188C240.967 139.692 241.057 140.376 241.057 141.24V145.47L242.281 146.01Z" fill="white"/>
<path d="M78.4 104.5V110H55.4V104.5L62.4 101.8L57 87.1H27.5L22 101.9L29.1 104.5V110H7.8V104.5L14.7 101.4L37.5 41.2H48.7L71.5 101.3L78.4 104.5ZM54.4 80L42.3 47.2L30.1 80H54.4Z" fill="white"/>
<path d="M94 40L117.86 57.0642V97.0769H94V40Z" fill="white"/>
<path d="M124.139 60.4619L144.86 75.2724V110H124.139V60.4619Z" fill="white"/>
<path d="M151.14 77.6924L175 87.3514V110H151.14V77.6924Z" fill="white"/>
<rect x="94" y="98.6924" width="23.8605" height="11.3077" fill="white"/>
<path d="M214.5 81.6C219.1 82.4667 222.533 83.4333 224.8 84.5C227.067 85.5667 228.6 86.9667 229.4 88.7C230.2 90.3667 230.6 92.7333 230.6 95.8C230.6 99.6 229.9 102.633 228.5 104.9C227.167 107.1 224.767 108.733 221.3 109.8C217.9 110.867 213.067 111.4 206.8 111.4C203.6 111.4 200.5 111.233 197.5 110.9C194.5 110.633 190.867 110.133 186.6 109.4V95H192.6L195.5 103.5C199.033 104.1 202.9 104.4 207.1 104.4C211.233 104.4 214.333 104.2 216.4 103.8C218.467 103.333 219.867 102.6 220.6 101.6C221.4 100.533 221.8 99 221.8 97C221.8 95.2 221.433 93.8667 220.7 93C219.967 92.0667 218.867 91.4 217.4 91C216 90.6 213.533 90.1333 210 89.6L203.2 88.4C198.467 87.5333 194.9 86.5667 192.5 85.5C190.1 84.4333 188.4 83 187.4 81.2C186.467 79.3333 186 76.7333 186 73.4C186 69.7333 186.633 66.8333 187.9 64.7C189.233 62.5667 191.5 61 194.7 60C197.9 58.9333 202.4 58.4 208.2 58.4C214 58.4 220.867 59.0667 228.8 60.4V74.3H223L220.3 66.5C215.9 65.7667 211.733 65.4 207.8 65.4C204.333 65.4 201.667 65.6333 199.8 66.1C197.933 66.5667 196.633 67.3 195.9 68.3C195.167 69.3 194.8 70.7333 194.8 72.6C194.8 74.4667 195.2 75.8667 196 76.8C196.8 77.6667 198.1 78.3667 199.9 78.9C201.7 79.3667 204.833 79.9667 209.3 80.7C210.967 80.9 212.7 81.2 214.5 81.6Z" fill="white"/>
</svg>
