<svg width="96" height="66" viewBox="0 0 96 66" fill="none" xmlns="http://www.w3.org/2000/svg">
<rect x="1.5" y="1.5" width="93" height="63" rx="31.5" fill="#011E64" stroke="white" stroke-width="3"/>
<path d="M55 30H41C39.8954 30 39 30.8954 39 32V39C39 40.1046 39.8954 41 41 41H55C56.1046 41 57 40.1046 57 39V32C57 30.8954 56.1046 30 55 30Z" stroke="white" stroke-width="2" stroke-linecap="round" stroke-linejoin="round"/>
<path d="M43 30V26C43 24.6739 43.5268 23.4021 44.4645 22.4645C45.4021 21.5268 46.6739 21 48 21C49.3261 21 50.5979 21.5268 51.5355 22.4645C52.4732 23.4021 53 24.6739 53 26V30" stroke="white" stroke-width="2" stroke-linecap="round" stroke-linejoin="round"/>
</svg>
